# xmcd
# Copyright (C) 1995-1998 Ti Kan
#
# Track frame offsets:
#       150
#       279187
#       281417
#
# Disc length: 3762 seconds
#
# Revision: 0
# Processed by: cddbd v1.5.2PL0 Copyright (c) Steve Scherf et al.
# Submitted via: CD-Transfer v1.0
#
DISCID=210eb003
DTITLE=Walter Rhyner - 
DYEAR=1900
DGENRE=
TTITLE0=Oldies Pur 07.10. -1
TTITLE1=Oldies Pur 07.10. -2
TTITLE2=Oldies Pur 07.10. -3
EXTD=
EXTT0=
EXTT1=
EXTT2=
PLAYORDER=
